<svg xmlns="http://www.w3.org/2000/svg" x="0px" y="0px" width="1111.445px" height="231.999px" viewBox="0 0 1111.445 231.999">
<rect x="87.908" y="151.626" display="none" fill-rule="evenodd" clip-rule="evenodd" fill="#EF795D" width="322.452" height="196.575"/>
  <g>
	<g>
		<path fill="#45475C" d="M355.327,38.632c0-5.833-0.811-10.529-2.432-14.095c-1.62-3.562-5.345-5.346-11.178-5.346h-1.943V13.36    h52.489c6.088,0,12.506,0.325,19.245,0.97c6.738,0.654,12.926,2.14,18.563,4.473c5.639,2.334,10.306,5.769,13.999,10.302    c3.695,4.541,5.54,10.628,5.54,18.275c0,2.722-0.554,5.511-1.65,8.359c-1.102,2.853-2.79,5.539-5.058,8.069    c-2.267,2.524-5.086,4.796-8.453,6.801c-3.375,2.012-7.325,3.597-11.86,4.765c6.35,0.647,11.63,1.914,15.845,3.789    c4.209,1.883,7.579,4.182,10.105,6.903c2.529,2.722,4.309,5.8,5.348,9.234c1.037,3.436,1.557,7.032,1.557,10.791    c0,7.385-1.688,13.414-5.055,18.076c-3.374,4.669-7.776,8.3-13.218,10.889c-5.442,2.594-11.602,4.345-18.469,5.25    c-6.872,0.906-13.738,1.361-20.606,1.361h-42.768V38.632z M392.264,21.137c-1.557,0-3.047,0.064-4.473,0.192    c-1.426,0.131-2.658,0.327-3.691,0.584c-1.299,0.263-2.466,0.454-3.5,0.583v48.989h14.579c7.904,0,14.417-1.878,19.538-5.639    c5.116-3.757,7.677-10.235,7.677-19.44c0-4.793-0.875-8.813-2.624-12.053c-1.749-3.239-4.018-5.832-6.804-7.775    c-2.79-1.943-5.996-3.335-9.623-4.18C399.715,21.558,396.02,21.137,392.264,21.137z M395.179,133.888    c10.754,0,18.955-2.332,24.591-6.997c5.639-4.669,8.457-11.28,8.457-19.832c0-17.886-11.018-26.826-33.048-26.826H380.6v51.711    c1.165,0.388,2.459,0.714,3.887,0.971c2.591,0.652,5.831,0.973,9.721,0.973H395.179z"/>
    <path fill="#45475C" d="M516.874,134.863c6.737,0,12.211-1.558,16.426-4.669c4.208-3.111,7.999-6.932,11.372-11.469l6.024,4.471    c-1.426,2.205-3.143,4.505-5.151,6.902c-2.01,2.399-4.47,4.6-7.386,6.608c-2.917,2.015-6.352,3.663-10.302,4.96    c-3.955,1.292-8.591,1.942-13.901,1.942c-6.872,0-13.057-1.2-18.565-3.597c-5.511-2.397-10.206-5.735-14.094-10.013    c-3.889-4.276-6.871-9.296-8.944-15.065c-2.071-5.763-3.111-12.082-3.111-18.952c0-7.777,1.102-14.645,3.307-20.606    c2.201-5.959,5.215-10.919,9.038-14.872c3.823-3.952,8.327-6.966,13.511-9.042c5.183-2.069,10.821-3.108,16.912-3.108    c6.09,0,11.728,0.942,16.915,2.819c5.18,1.88,9.685,4.504,13.51,7.874c3.821,3.369,6.835,7.453,9.042,12.245    c2.198,4.796,3.303,10.109,3.303,15.942c0,1.428-0.034,2.887-0.097,4.373c-0.067,1.493-0.164,2.82-0.289,3.985    c-0.134,1.428-0.265,2.723-0.392,3.889h-58.515c0,12.832,1.973,21.938,5.928,27.315    C505.37,132.172,510.521,134.863,516.874,134.863z M528.538,90.731c0-6.479-0.421-11.859-1.265-16.134    c-0.844-4.278-1.978-7.712-3.401-10.305c-1.429-2.59-3.143-4.439-5.153-5.54c-2.009-1.1-4.244-1.654-6.708-1.654    c-2.205,0-4.309,0.554-6.317,1.654c-2.011,1.1-3.761,2.949-5.247,5.54c-1.493,2.593-2.692,6.027-3.597,10.305    c-0.908,4.275-1.361,9.655-1.361,16.134H528.538z"/>
    <path fill="#45475C" d="M630.4,38.632c0-5.833-0.811-10.529-2.431-14.095c-1.62-3.562-5.345-5.346-11.176-5.346h-1.944V13.36    h23.327c3.368,0,6.188,0.422,8.457,1.263c2.268,0.846,4.082,2.236,5.441,4.179c1.361,1.944,2.3,4.538,2.822,7.776    c0.516,3.24,0.774,7.259,0.774,12.053v103.033h-16.521l-6.807-8.751h-0.973c-1.427,2.076-3.238,3.89-5.441,5.446    c-1.814,1.426-4.116,2.656-6.901,3.689c-2.788,1.04-6.126,1.558-10.012,1.558c-6.871,0-12.83-1.232-17.885-3.694    c-5.054-2.459-9.299-5.83-12.731-10.108c-3.439-4.276-5.996-9.329-7.679-15.165c-1.688-5.832-2.529-12.051-2.529-18.66    c0-6.61,0.842-12.831,2.529-18.662c1.683-5.833,4.275-10.887,7.773-15.165c3.502-4.276,7.872-7.644,13.122-10.108    c5.249-2.462,11.372-3.693,18.368-3.693c3.113,0,5.932,0.325,8.46,0.97c2.526,0.652,4.694,1.299,6.514,1.944    c2.069,0.909,3.886,1.882,5.44,2.917V38.632z M630.4,62.932c-1.428-1.037-2.983-2.007-4.666-2.917    c-1.426-0.646-3.142-1.294-5.152-1.943c-2.009-0.646-4.244-0.973-6.705-0.973c-3.631,0-6.676,0.973-9.138,2.916    c-2.461,1.946-4.47,4.667-6.025,8.166c-1.556,3.499-2.658,7.616-3.306,12.345c-0.649,4.73-0.973,9.881-0.973,15.454    c0,5.574,0.323,10.725,0.973,15.454c0.647,4.733,1.686,8.846,3.109,12.343c1.426,3.501,3.338,6.22,5.738,8.166    c2.394,1.944,5.277,2.919,8.647,2.919c2.979,0,5.543-0.651,7.679-1.948c2.141-1.292,3.918-2.721,5.349-4.274    c1.681-1.816,3.174-3.955,4.47-6.418V62.932z"/>
    <path fill="#45475C" d="M738.894,143.136c-5.233,0-10.429-0.512-15.599-1.53c-5.169-1.021-9.792-2.516-13.872-4.496    c-4.087-1.978-7.404-4.401-9.953-7.274c-2.555-2.871-3.829-6.088-3.829-9.664v-22.39h5.743    c2.023,13.269,6.116,22.71,12.264,28.325c6.15,5.612,14.55,8.417,25.203,8.417c7.226,0,13.025-1.561,17.4-4.688    c4.373-3.125,6.563-7.751,6.563-13.875c0-5.485-1.755-10.046-5.265-13.683c-3.508-3.635-8.323-7.302-14.446-11.005l-23.541-14.162    c-8.677-5.098-14.8-10.332-18.371-15.689c-3.575-5.36-5.358-11.547-5.358-18.566c0-10.076,3.857-18.052,11.579-23.921    c7.717-5.865,18.148-8.805,31.288-8.805c5.231,0,10.432,0.511,15.599,1.531c5.167,1.024,9.788,2.522,13.874,4.5    c4.078,1.979,7.396,4.402,9.951,7.273c2.55,2.867,3.827,6.092,3.827,9.664v22.39h-5.741c-2.155-13.264-6.209-22.707-12.168-28.325    c-5.957-5.611-13.752-8.419-23.383-8.419c-6.849,0-12.264,1.662-16.26,4.977c-3.988,3.319-5.984,7.845-5.984,13.588    c0,2.678,0.479,5.071,1.437,7.176c0.956,2.104,2.292,4.052,4.018,5.836c1.724,1.789,3.795,3.512,6.218,5.167    c2.425,1.659,5.17,3.383,8.233,5.168l23.534,13.971c8.68,5.102,15.024,10.114,19.046,15.021c4.02,4.914,6.028,10.877,6.028,17.895    c0,10.974-4.146,19.65-12.44,26.026C766.196,139.947,754.33,143.136,738.894,143.136z"/>
    <path fill="#45475C" d="M834.387,49.938h21.049v8.612h-21.049v56.454c0,7.148,0.863,11.961,2.583,14.452    c1.722,2.486,4.177,3.731,7.367,3.731c2.039,0,3.985-0.254,5.836-0.767c1.852-0.508,3.477-1.081,4.885-1.723    c1.532-0.765,2.995-1.656,4.399-2.678l2.68,5.357c-1.661,1.532-3.636,2.938-5.936,4.211c-2.036,1.021-4.623,1.979-7.749,2.87    c-3.129,0.891-6.859,1.339-11.193,1.339c-8.678,0-15.476-2.359-20.385-7.08c-4.914-4.721-7.367-11.674-7.367-20.86V58.55h-11.48    v-8.612h11.48V32.713l9.568-11.482h15.312V49.938z"/>
    <path fill="#45475C" d="M917.249,152.321c-1.912,5.231-3.955,9.503-6.121,12.825c-2.171,3.315-4.468,5.934-6.889,7.847    c-2.428,1.913-5.07,3.252-7.942,4.017c-2.869,0.767-5.967,1.151-9.283,1.151h-7.655v-6.702c3.316,0,6.344-0.284,9.09-0.858    c2.744-0.577,5.263-1.565,7.562-2.967c2.296-1.407,4.333-3.287,6.123-5.646c1.785-2.362,3.379-5.39,4.786-9.089l4.019-10.336    l-34.45-75.401c-4.212-9.311-10.143-14.414-17.8-15.309v-3.826h16.844c5.741,0,10.781,1.37,15.12,4.114    c4.334,2.743,7.588,6.477,9.758,11.194l22.011,48.228l23.347-61.623h10.145L917.249,152.321z"/>
    <path fill="#45475C" d="M971.408,38.454c0-5.741-0.798-10.364-2.391-13.874c-1.599-3.508-5.264-5.265-11.005-5.265h-1.916v-5.739    h22.969c3.315,0,6.088,0.415,8.321,1.244c2.23,0.831,4.02,2.201,5.363,4.113c1.338,1.915,2.262,4.467,2.771,7.656    c0.511,3.19,0.766,7.147,0.766,11.864v101.43h-24.878V38.454z"/>
    <path fill="#45475C" d="M1062.501,133.188c6.633,0,12.026-1.532,16.171-4.593c4.146-3.066,7.874-6.826,11.195-11.292l5.935,4.402    c-1.404,2.169-3.098,4.435-5.072,6.793c-1.979,2.363-4.401,4.529-7.271,6.506c-2.872,1.984-6.257,3.606-10.145,4.881    c-3.895,1.274-8.453,1.913-13.683,1.913c-6.766,0-12.856-1.182-18.276-3.542c-5.426-2.358-10.05-5.646-13.879-9.856    c-3.825-4.209-6.764-9.15-8.799-14.832c-2.047-5.673-3.063-11.892-3.063-18.657c0-7.655,1.081-14.416,3.254-20.285    c2.17-5.867,5.135-10.75,8.897-14.64c3.765-3.891,8.198-6.857,13.303-8.901c5.101-2.038,10.647-3.06,16.649-3.06    c5.996,0,11.547,0.925,16.647,2.775c5.103,1.849,9.54,4.433,13.303,7.75c3.759,3.317,6.729,7.337,8.896,12.056    c2.171,4.72,3.256,9.951,3.256,15.692c0,1.407-0.032,2.842-0.095,4.306c-0.065,1.469-0.164,2.775-0.289,3.922    c-0.128,1.408-0.255,2.68-0.38,3.83h-57.607c0,12.631,1.948,21.597,5.838,26.889    C1051.177,130.539,1056.251,133.188,1062.501,133.188z M1073.984,89.743c0-6.377-0.416-11.673-1.245-15.882    c-0.83-4.212-1.941-7.591-3.346-10.146c-1.407-2.548-3.101-4.368-5.075-5.453c-1.979-1.083-4.181-1.628-6.6-1.628    c-2.17,0-4.244,0.545-6.218,1.628c-1.98,1.085-3.702,2.905-5.169,5.453c-1.47,2.554-2.652,5.933-3.541,10.146    c-0.896,4.209-1.342,9.505-1.342,15.882H1073.984z"/>
	</g>
</g>
  <g>
	<path fill="#45475C" d="M425.974,211.76c-8.755,0-11.17-3.926-11.17-12.982v-23.244l-15.096,33.51h-1.209L382.8,174.928v34.115   h-2.415v-39.851h5.737l14.491,31.397l14.19-31.397h5.434v29.585c0,7.245,1.811,11.774,5.736,11.774V211.76z"/>
    <path fill="#45475C" d="M448.309,209.043l-2.112-2.718h-0.303c-1.208,1.509-3.925,3.322-8.453,3.322   c-3.32,0-8.755-1.813-8.755-8.455c0-6.64,7.245-8.451,15.396-8.451h1.812c0-8.454-2.716-10.265-6.339-10.265   c-3.322,0-5.736,1.206-6.642,5.132h-2.717c0-2.112,0-3.926,1.509-5.435c1.511-1.509,5.435-2.114,9.058-2.114   c5.435,0,10.567,1.812,10.567,12.682v16.302H448.309z M445.894,195.156h-1.812c-6.038,0-9.66,2.416-9.66,6.037   c0,3.926,2.716,5.736,5.736,5.736c3.019,0,4.526-1.811,5.735-3.621V195.156z"/>
    <path fill="#45475C" d="M459.779,187.911c0-3.623-0.604-6.039-4.227-6.039h-0.603v-1.206h19.925c3.622,0,4.527,2.415,4.527,4.831   v3.62h-1.207c0-3.923-2.717-6.036-6.34-6.036h-6.641v25.963h-5.435V187.911z"/>
    <path fill="#45475C" d="M501.44,209.043l-2.113-2.718h-0.303c-1.208,1.509-3.924,3.322-8.453,3.322   c-3.321,0-8.755-1.813-8.755-8.455c0-6.64,7.246-8.451,15.397-8.451h1.811c0-8.454-2.716-10.265-6.338-10.265   c-3.322,0-5.738,1.206-6.644,5.132h-2.716c0-2.112,0-3.926,1.51-5.435c1.509-1.509,5.434-2.114,9.056-2.114   c5.435,0,10.567,1.812,10.567,12.682v16.302H501.44z M499.024,195.156h-1.811c-6.038,0-9.66,2.416-9.66,6.037   c0,3.926,2.716,5.736,5.735,5.736s4.528-1.811,5.735-3.621V195.156z"/>
    <path fill="#45475C" d="M515.023,193.344h3.322c4.831,0,7.548-1.812,7.548-5.434c0-3.623-2.717-5.434-6.038-5.434   c-4.227,0-7.608,2.415-7.85,6.338h-1.208c0-3.318,0-5.132,1.509-6.641c1.51-1.509,4.529-2.114,8.453-2.114   c5.434,0,10.869,1.812,10.869,7.851c0,3.622-2.415,5.735-6.038,6.643c4.226,0.904,6.944,3.32,6.944,6.943   c0,6.338-5.436,8.151-12.077,8.151c-5.435,0-8.452-2.114-10.566-4.831l1.208-0.907c1.509,1.511,3.622,3.322,8.151,3.322   c4.831,0,7.547-1.812,7.547-5.735c0-3.925-2.717-5.737-8.453-5.737h-3.322V193.344z"/>
    <path fill="#45475C" d="M557.893,186.099l-12.681,22.944h-5.434v-21.133c0-3.623-0.604-6.039-4.227-6.039h-0.905v-1.206h5.132   c4.226,0,5.434,1.206,5.434,7.245v15.698l12.681-22.943h5.433v28.378h-5.433V186.099z"/>
    <path fill="#45475C" d="M590.496,196.062h-12.076v12.981h-5.434v-21.133c0-3.623-0.604-6.039-4.227-6.039h-0.906v-1.206h5.133   c4.227,0,5.434,1.206,5.434,7.245v5.735h12.076v-12.98h5.436v21.132c0,3.623,0.602,6.037,4.227,6.037h0.904v1.209h-5.131   c-4.229,0-5.436-1.209-5.436-7.246V196.062z"/>
    <path fill="#45475C" d="M633.507,194.095l7.242-10.135c1.678-2.318,3.762-3.766,7.527-3.766h1.445v1.447   c-1.736,0-3.764,0.578-5.211,2.607l-6.373,8.977l6.662,8.399c2.027,2.605,4.057,4.344,6.66,4.689v1.103   c-0.578,0.288-1.738,0.579-2.895,0.579c-2.896,0-5.793-1.391-8.396-4.634l-6.662-8.398v12.453h-5.215v-20.271   c0-3.477-0.578-5.793-4.055-5.793h-1.156v-1.158h5.211c4.057,0,5.215,1.158,5.215,6.951V194.095z"/>
    <path fill="#45475C" d="M655.515,187.146c0-3.477-0.578-5.793-4.055-5.793h-1.16v-1.158h5.215c2.895,0,4.344,0.868,4.924,2.606   h0.287c1.158-1.448,3.477-3.187,7.82-3.187c6.949,0,10.426,6.371,10.426,14.189c0,7.821-3.477,14.192-11.004,14.192   c-3.186,0-5.504-0.869-7.242-1.739v12.163h-5.211V187.146z M660.726,203.941c1.738,0.869,3.766,1.738,5.504,1.738   c5.211,0,7.238-5.214,7.238-11.875c0-6.658-2.027-11.871-6.66-11.871c-3.186,0-4.924,1.736-6.082,3.475V203.941z"/>
    <path fill="#45475C" d="M695.769,179.615c8.107,0,12.74,6.371,12.74,14.189c0,7.821-4.633,14.192-12.74,14.192   c-8.109,0-12.746-6.371-12.746-14.192C683.023,185.986,687.66,179.615,695.769,179.615z M695.769,181.933   c-4.346,0-7.242,5.213-7.242,11.871c0,6.661,2.896,11.875,7.242,11.875c4.342,0,7.238-5.214,7.238-11.875   C703.007,187.146,700.111,181.933,695.769,181.933z"/>
    <path fill="#45475C" d="M723.857,180.195c5.793,0,11.002,1.738,11.002,6.951c0,3.185-1.734,5.211-5.789,6.08   c4.346,0.869,6.949,3.187,6.949,6.66c0,5.793-5.211,7.531-12.162,7.531H714.3v-20.271c0-3.477-0.578-5.793-4.055-5.793h-0.58   v-1.158H723.857z M719.513,192.069h3.186c4.055,0,6.662-1.738,6.662-4.923c0-3.186-2.607-4.926-6.082-4.926   c-1.16,0-2.898,0.291-3.766,0.581V192.069z M719.513,194.385v10.425c0.867,0.291,2.605,0.578,3.766,0.578   c4.633,0,7.238-1.735,7.238-5.502c0-3.764-2.605-5.501-7.818-5.501H719.513z"/>
    <path fill="#45475C" d="M759.478,207.417l-2.029-2.607h-0.289c-1.158,1.447-3.764,3.187-8.109,3.187   c-3.186,0-8.398-1.739-8.398-8.11c0-6.369,6.951-8.107,14.77-8.107h1.738c0-8.109-2.607-9.846-6.082-9.846   c-3.184,0-5.502,1.156-6.371,4.923h-2.607c0-2.026,0-3.767,1.447-5.214c1.451-1.447,5.215-2.027,8.689-2.027   c5.213,0,10.137,1.738,10.137,12.164v15.639H759.478z M757.16,194.095h-1.738c-5.791,0-9.266,2.317-9.266,5.791   c0,3.767,2.605,5.502,5.502,5.502c2.895,0,4.344-1.735,5.502-3.473V194.095z"/>
    <path fill="#45475C" d="M773.085,182.511c-3.475,0-6.082,2.027-6.082,5.791h-1.158v-3.473c0-2.318,0.869-4.635,4.344-4.635h20.561   v2.316h-9.555v24.906h-5.215v-24.906H773.085z"/>
    <path fill="#45475C" d="M815.828,194.673h-17.26c0,6.373,2.895,11.006,7.818,11.006c3.766,0,6.082-1.738,8.107-4.633l1.158,0.869   c-2.605,4.342-6.08,6.081-10.422,6.081c-8.111,0-12.164-6.371-12.164-14.192c0-7.818,4.053-14.189,11.295-14.189   c7.818,0,11.584,4.635,11.584,12.742L815.828,194.673z M810.73,192.357c0-6.371-2.027-10.137-6.082-10.137   c-3.475,0-6.08,4.345-6.08,10.137H810.73z"/>
    <path fill="#45475C" d="M840.269,185.408l-12.164,22.01h-5.213v-20.271c0-3.477-0.58-5.793-4.053-5.793h-0.869v-1.158h4.922   c4.055,0,5.213,1.158,5.213,6.951v15.058l12.164-22.009h5.209v27.223h-5.209V185.408z M840.556,172.376l1.158,0.869   c-1.445,2.606-3.764,4.632-7.529,4.632c-3.762,0-6.08-2.025-7.529-4.632l1.158-0.869c1.447,1.446,3.186,2.315,6.371,2.315   C837.373,174.692,839.109,173.823,840.556,172.376z"/>
</g>
  <g>
	<g>
		<path fill="#EF795D" d="M58.465,21l203.587-0.15l0.057,76.748c0.204,0.083,0.411,0.148,0.609,0.251    c0.953,0.495,1.912,0.943,2.879,1.356l0.047-3.389l0.346-25.139l0.691-50.277l0.057-4.123l-4.238-0.058l-25.579-0.352    c-8.527-0.128-17.053-0.139-25.58-0.215l-51.158-0.361c-17.053-0.136-34.105-0.107-51.158-0.168l-51.159-0.12l-5.409-0.013    l0.012,5.41l-0.012,39.604c2.481,0.184,3.864-0.163,5.979,0.209L58.465,21z"/>
    <path fill="#EF795D" d="M262.156,161.958l0.044,59.251l-203.881-0.152l0.046-64.053c-1.818-0.791-3.637-1.549-5.395-2.444    l0.119,16.672l0.183,25.139l0.348,25.139l0.06,4.306l4.188-0.059l102.317-1.427l51.159-1.159l25.579-0.584l25.87-0.786    l0.768-25.43l0.575-25.138l0.197-8.742C263.609,162.302,262.885,162.122,262.156,161.958z"/>
	</g>
    <g>
		<g>
			<g>
				<path fill="#46475C" d="M150.394,90.061c4.993-0.334,10.03-0.269,15.008-0.792c0.297-0.031,0.576-0.133,0.611-0.471      c0.358-3.504-0.527-7.363-0.939-10.833c-0.329-2.767,0.013-7.921-1.779-10.237c-1.408-1.819-4.972-1.305-7.099-1.322      c-11.258-0.09-22.516-0.186-33.774-0.28c-29.8-0.249-59.6-0.511-89.4-0.724c-2.275-0.016-4.55-0.039-6.826-0.04      c-0.266,0-0.617,0.155-0.611,0.471c0.167,7.995,0.688,16.81,2.324,24.641c0.135,0.649,1.087,1.051,1.67,1.042      c22.694-0.333,45.423,0.105,68.109-0.67c1.462-0.05-0.184-1.756-1.091-1.725c-22.686,0.775-45.414,0.336-68.109,0.67      c0.557,0.347,1.113,0.695,1.67,1.042c-1.436-6.875-1.502-14.274-2.057-21.264c-0.075-0.939-0.152-1.88-0.2-2.821      c0.023,0.448-0.764,0.336,0.384,0.342c1.47,0.006,2.94,0.017,4.411,0.027c12.584,0.086,25.169,0.192,37.753,0.294      c28.59,0.233,57.18,0.479,85.77,0.71c1.155,0.009,2.311,0.019,3.466,0.027c3.086,0.022,2.504,4.29,2.801,6.739      c0.511,4.214,1.289,8.541,1.25,12.796c0,0.045-13.088,0.562-14.432,0.652C147.836,88.435,149.482,90.122,150.394,90.061      L150.394,90.061z"/>
			</g>
		</g>
      <g>
			<g>
				<path fill="#46475C" d="M114.274,106.993c-2.646-3.456-4.87-7.198-7.608-10.586c-2.644-3.27-5.829-6.188-8.796-9.16      c0.204,0.598,0.408,1.195,0.613,1.792c5.803-0.626,11.616-0.356,17.44-0.343c6.57,0.016,13.2-0.456,19.773-0.648      c2.739-0.081,5.331-0.194,8.042,0.296c3.907,0.706,4.814,3.993,7.684,5.769c5.721,3.542,11.592,7.277,16.172,12.273      c-0.204-0.598-0.408-1.195-0.613-1.792c-8.534,1.317-17.276-0.523-25.895,0.097c-9.052,0.651-18.127,2.187-27.196,2.384      c-0.551,0.012,0.475,2.155,1.131,2.141c9.064-0.198,18.151-1.702,27.196-2.385c8.623-0.651,17.353,1.221,25.895-0.097      c0.671-0.104-0.435-1.597-0.613-1.792c-3.728-4.067-8.299-7.359-12.882-10.399c-4.591-3.045-7.959-7.608-13.554-8.619      c-3.235-0.585-6.841,0.014-10.107,0.062c-3.636,0.054-7.245,0.089-10.87,0.398c-7.567,0.644-15.165-0.303-22.733,0.514      c-0.666,0.072,0.436,1.614,0.613,1.792c3.225,3.228,6.555,6.419,9.428,9.972c2.387,2.952,4.273,6.3,6.583,9.317      C115.021,109.347,114.876,107.78,114.274,106.993L114.274,106.993z"/>
			</g>
		</g>
      <g>
			<g>
				<path fill="#46475C" d="M107.155,100.383c-5.689-0.833-9.36-6.401-14.596-8.39c-5.755-2.186-11.809-1.875-17.86-1.317      c-6.817,0.628-14.029,1.527-20.696,3.037c-5.161,1.169-8.506,6.322-13.983,6.863c-1.257,0.124-1.333,1.788-0.272,2.223      c5.395,2.21,6.751,8.938,12.729,10.416c2.872,0.71,5.447-2.122,8.68-1.594c3.722,0.607,7.429,0.432,11.183,0.156      c8.758-0.643,17.294-1.789,26.101-1.831c3.786-0.018,7.53-0.214,11.306,0.083c2.295,0.18,4.444,0.151,6.524-0.87      c0.632-0.31,1.044-1.239,0.462-1.808c-3.271-3.192-7.512-8.111-12.388-8.126c-1.489-0.004-1.911,2.294-0.286,2.299      c3.455,0.011,8.348,5.057,10.767,7.419c0.154-0.603,0.308-1.205,0.462-1.808c-2.702,1.326-6.094,0.459-8.958,0.358      c-3.799-0.134-7.667,0.159-11.475,0.166c-8.101,0.014-16.027,1.363-24.088,1.955c-3.626,0.266-7.171-0.636-10.711-0.521      c-2.781,0.09-6.203,2.437-8.784,1.208c-4.429-2.109-5.85-7.748-10.63-9.706c-0.091,0.741-0.181,1.481-0.272,2.223      c4.433-0.438,8.079-3.565,11.735-5.837c2.67-1.659,5.792-1.526,8.792-1.894c3.518-0.432,6.964-1.314,10.483-1.792      c7.813-1.061,15.877-1.545,23.002,2.274c4.378,2.347,7.309,6.355,12.487,7.113C108.355,102.9,108.746,100.616,107.155,100.383      L107.155,100.383z"/>
			</g>
		</g>
      <g>
			<g>
				<path fill="#46475C" d="M52.839,92.952c-6.639,0.039-13.268,0.444-19.902,0.643c-4.677,0.14-5.229-0.883-4.775,3.879      c0.562,5.89,0.289,11.979,1.433,17.789c0.384,1.949,2.002,2.68,3.768,2.929c1.05,0.148-1.175-0.85-1.553-0.903      c0.685,0.097-0.307-4.038-0.391-4.964c-0.217-2.381-0.275-4.782-0.384-7.17c-0.152-3.345-0.887-6.805-0.711-10.144      c0.048-0.919,22.059-1.094,24.467-1.108C55.201,93.9,53.349,92.949,52.839,92.952L52.839,92.952z"/>
			</g>
		</g>
      <g>
			<g>
				<path fill-rule="evenodd" clip-rule="evenodd" fill="#FFFFFF" d="M47.637,93.427c-0.064-0.523-0.198-1.178-0.331-1.818"/>
        <g>
					<path fill="#46475C" d="M48.887,93.427c-0.095-0.724-0.228-1.436-0.375-2.151c-0.138-0.667-0.914-1.044-1.538-0.873       c-0.688,0.189-1.01,0.871-0.873,1.538c0.097,0.467,0.239,1.128,0.286,1.486c0.088,0.675,0.501,1.25,1.25,1.25       C48.251,94.677,48.976,94.104,48.887,93.427L48.887,93.427z"/>
				</g>
			</g>
        <g>
				<path fill-rule="evenodd" clip-rule="evenodd" fill="#FFFFFF" d="M52.785,93.427c-0.22-0.756-0.207-1.488-0.538-2.314"/>
          <g>
					<path fill="#46475C" d="M53.99,93.095c-0.208-0.769-0.256-1.564-0.538-2.314c-0.239-0.637-0.836-1.066-1.538-0.873       c-0.612,0.168-1.112,0.899-0.873,1.538c0.282,0.75,0.33,1.545,0.538,2.314C52,95.314,54.413,94.653,53.99,93.095L53.99,93.095z       "/>
				</g>
			</g>
		</g>
      <g>
			<g>
				<path fill="#46475C" d="M153.853,93.213c1.961-0.007,3.922-0.051,5.883-0.085c1.719-0.03,3.977-0.362,5.663,0.135      c-0.395-0.371-0.79-0.742-1.185-1.113c0.365,3.338,1.354,6.581,1.426,9.947c0.021,0.981,2.386,1.737,2.362,0.626      c-0.072-3.373-1.06-6.606-1.426-9.947c-0.065-0.599-0.657-0.957-1.185-1.113c-1.391-0.41-2.986-0.269-4.415-0.264      c-2.58,0.008-5.158,0.098-7.738,0.107C151.599,91.512,152.761,93.217,153.853,93.213L153.853,93.213z"/>
			</g>
		</g>
      <g>
			<g>
				<path fill="#46475C" d="M94.38,94.205c2.051,0.007,4.09,0.118,6.14,0c1.603-0.092,1.611-2.593,0-2.5      c-2.05,0.118-4.089,0.007-6.14,0C92.768,91.699,92.769,94.199,94.38,94.205L94.38,94.205z"/>
			</g>
		</g>
      <g>
			<g>
				<path fill="#46475C" d="M46.148,109.047c-3.529-0.206-8.513-0.628-11.513,1.654c-2.592,1.972-2.469,5.777-2.472,8.693      c-0.001,1.612,2.499,1.612,2.5,0c0.002-2.189-0.309-5.361,1.659-6.858c2.307-1.754,7.105-1.147,9.825-0.988      C47.759,111.641,47.75,109.141,46.148,109.047L46.148,109.047z"/>
			</g>
		</g>
      <g>
			<g>
				<path fill="#46475C" d="M95.822,135.62c-1.289,0.383-2.665,0.849-3.97,1.156c0.42,0.346,0.841,0.692,1.261,1.038      c-0.679-1.754-1.422-2.656-3.411-2.194c-1.331,0.31-2.216,1.299-3.666,1.625c-2.75,0.617-5.393-3.106-6.597-4.957      c-1.283-1.972-2.37-3.885-4.044-5.558c-1.208-1.207-2.615-1.646-4.243-1.929c-1.863-0.323-3.425-1.496-5.267-1.091      c-2.382,0.523-1.135,3.704-0.206,4.793c1.079,1.266,1.807-0.354,0.959-1.349c-2.825-3.313,2.914,0.062,1.814-0.596      c2.68,1.604,3.808-0.653,6.876,2.411c2.15,2.147,3.216,5.226,5.335,7.455c1.419,1.492,2.85,2.454,4.798,3.044      c0.777,0.236,2.317,0.094,3.006-0.313c1.411-0.835,2.63-2.097,3.003-1.134c0.166,0.428,0.698,1.17,1.261,1.038      c1.342-0.316,2.648-0.764,3.97-1.156C97.85,137.562,96.772,135.337,95.822,135.62L95.822,135.62z"/>
			</g>
		</g>
      <g>
			<g>
				<path fill="#46475C" d="M66.328,129.2c1.271-0.248,2.3-1.088,3.197-1.976c1.147-1.135-0.621-2.902-1.768-1.768      c-0.621,0.614-1.234,1.165-2.095,1.333c-0.669,0.131-1.043,0.919-0.873,1.538C64.98,129.021,65.659,129.33,66.328,129.2      L66.328,129.2z"/>
			</g>
		</g>
      <g>
			<g>
				<path fill="#46475C" d="M69.006,123.608c11.381-7.416,23.772-12.256,37.448-12.453c6.632-0.096,13.129-0.703,19.742-1.074      c7.338-0.412,14.539-0.157,21.848-1.144c13.371-1.806,27.225-2.452,40.675-1.53c14.478,0.993,29.106,0.038,43.607,0.016      c0.205,0-0.9-1.858-1.545-1.857c-14.513,0.022-29.114,0.897-43.607-0.016c-13.483-0.849-27.267-0.252-40.674,1.53      c-6.687,0.889-13.248,0.888-19.977,1.069c-7.231,0.194-14.361,1.103-21.612,1.149c-13.711,0.088-26.217,5.065-37.624,12.497      C67.024,121.964,68.545,123.908,69.006,123.608L69.006,123.608z"/>
			</g>
		</g>
      <g>
			<g>
				<path fill="#46475C" d="M229.341,107.647c9.084-2.552,18.695-2.214,28.005-1.326c9.956,0.95,20.012,2.516,27.667,9.745      c1.144,1.08-0.033-0.925-0.408-1.279c-6.88-6.496-16.059-9.343-25.244-10.172c-10.505-0.949-21.263-1.834-31.55,1.056      C227.708,105.699,228.742,107.816,229.341,107.647L229.341,107.647z"/>
			</g>
		</g>
      <g>
			<g>
				<path fill="#46475C" d="M281.006,113.513c-4.533-1.518-9.042-2.795-13.806-3.318c-4.936-0.542-9.57,1.104-14.422,1.597      c-5.007,0.509-10.085-0.352-15.069-0.728c-4.606-0.347-9.314,0.645-13.85,1.307c-4.848,0.708-9.75,0.695-14.625,1.13      c-4.528,0.404-9.644,2.095-14.14,1.36c-1.76-0.288-3.47-1.257-5.219-1.68c-2.091-0.505-4.515-0.107-6.616,0.111      c-4.526,0.471-9.005,0.982-13.562,1.036c-4.485,0.053-8.831-0.768-13.335-0.423c-4.369,0.334-8.566,1.818-12.714,3.126      c-4.263,1.345-7.623-0.376-11.867-0.082c-4.648,0.323-8.786,0.696-13.47,0.194c-8.02-0.858-14.548,5.569-18.084,11.965      c-1.684,3.046-2.348,7.074-5.885,8.531c-1.329,0.547-1.947,1.368-3.414,1.165c-1.195-0.165-2.293-0.692-3.51-0.468      c-0.167,0.031,0.13,2.476,0,2.5c1.173-0.217,2.364,0.216,3.51,0.468c1.449,0.319,2.116-0.674,3.414-1.165      c3.463-1.311,4.348-5.546,5.885-8.531c3.576-6.941,10.014-12.085,18.084-11.965c4.664,0.07,8.788,0.521,13.47-0.194      c4.192-0.641,7.554,1.34,11.867,0.082c4.243-1.238,8.302-2.588,12.714-3.126c4.455-0.544,8.886,0.329,13.335,0.423      c4.52,0.095,9.083-0.495,13.562-1.036c4.44-0.536,7.673,0.247,11.834,1.568c3.91,1.242,10.104-0.941,14.14-1.36      c4.875-0.506,9.763-0.482,14.625-1.13c4.635-0.618,9.155-1.394,13.85-1.307c5.061,0.094,9.976,0.986,15.069,0.728      c4.94-0.25,9.401-1.876,14.422-1.597c4.715,0.262,9.365,1.832,13.806,3.318C280.772,115.935,281.273,113.603,281.006,113.513      L281.006,113.513z"/>
			</g>
		</g>
      <g>
			<g>
				<path fill="#46475C" d="M102.495,134.207c10.122,0.139,20.169,2.277,30.153,3.76c1.577,0.234,2.255-2.175,0.665-2.411      c-10.194-1.514-20.481-3.708-30.818-3.849C100.882,131.685,100.884,134.185,102.495,134.207L102.495,134.207z"/>
			</g>
		</g>
      <g>
			<g>
				<path fill="#46475C" d="M298.063,124.097c4.646,0.813,9.276,1.74,13.896,2.696c2.303,0.476,4.606,0.969,6.883,1.562      c1.619,0.421,1.458,1.031,1.582,2.552c0.809,9.944,0.578,20.049,0.555,30.017c-0.01,4.166-0.017,8.339-0.196,12.501      c-0.02,0.452-0.048,0.903-0.088,1.354c-0.081,0.912,1.574-0.133,0.584,0.073c-3.184,0.664-6.402,1.311-9.647,1.57      c-3.483,0.279-7.703-1.729-10.714-3.232c-1.68-0.839-0.965-5.687-1.015-7.243c-0.178-5.591-0.155-11.32-0.965-16.864      c-0.059-0.399-2.519,0.026-2.45,0.498c0.909,6.215,0.838,12.648,1.03,18.915c0.09,2.938-0.653,4.47,2.102,5.846      c2.698,1.348,6.319,2.637,9.341,2.829c4.159,0.264,9.593-0.607,13.525-1.998c1.583-0.56,0.854-5.766,0.875-7.02      c0.209-12.021,0.238-24.117-0.384-36.126c-0.223-4.302-0.773-4.137-5.056-5.117c-5.892-1.348-11.849-2.497-17.803-3.538      C299.592,123.279,297.547,124.007,298.063,124.097L298.063,124.097z"/>
			</g>
		</g>
      <g>
			<g>
				<path fill="#46475C" d="M309.041,132.657c0.352,13.438,1.485,26.905,1.322,40.351c-0.009,0.751,1.814,2.095,1.82,1.602      c0.165-13.561-0.972-27.139-1.327-40.69C310.839,133.281,309.016,131.723,309.041,132.657L309.041,132.657z"/>
			</g>
		</g>
      <g>
			<g>
				<path fill="#46475C" d="M300.99,128.255c3.171,0.836,6.19,0.977,9.456,0.839c0.803-0.034,0.806-1.284,0-1.25      c-3.145,0.133-6.063,0.013-9.124-0.794C300.542,126.844,300.211,128.05,300.99,128.255L300.99,128.255z"/>
			</g>
		</g>
      <g>
			<g>
				<path fill="#46475C" d="M309.24,128.159c-0.134,0.67-0.242,1.398-0.536,2.017c-0.292,0.615-0.176,1.344,0.448,1.71      c0.55,0.322,1.418,0.167,1.71-0.448c0.399-0.839,0.607-1.708,0.789-2.614c0.134-0.667-0.182-1.348-0.873-1.538      C310.157,127.115,309.375,127.491,309.24,128.159L309.24,128.159z"/>
			</g>
		</g>
      <g>
			<g>
				<path fill="#46475C" d="M307.138,130.346c-31.084,2.349-62.171,4.72-93.27,6.901c-23.178,1.626-46.419,3.798-69.642,4.679      c-0.803,0.03-0.807,1.281,0,1.25c22.847-0.867,45.712-3.004,68.516-4.6c31.475-2.203,62.936-4.603,94.396-6.98      C307.936,131.536,307.942,130.286,307.138,130.346L307.138,130.346z"/>
			</g>
		</g>
      <g>
			<g>
				<path fill="#46475C" d="M144.172,139.497c9.161-0.039,18.383-1.044,27.511-1.715c16.181-1.19,32.355-2.472,48.528-3.761      c25.327-2.02,50.652-4.487,76.01-6.071c0.203-0.013,0.405-0.026,0.608-0.029c1.261-0.019,2.111-1.53,0.439-1.506      c-7.246,0.107-14.574,1.098-21.791,1.678c-15.689,1.263-31.377,2.54-47.066,3.798c-27.397,2.197-54.9,5.114-82.378,6.071      c-0.474,0.017-0.948,0.027-1.422,0.029C143.347,137.996,142.501,139.503,144.172,139.497L144.172,139.497z"/>
			</g>
		</g>
      <g>
			<g>
				<path fill="#46475C" d="M130.673,142c3.499-0.176,7.107-0.339,10.556-0.976c-0.168,0.031-1.554-1.041-2.232-0.915      c-3.45,0.637-7.058,0.799-10.556,0.976C128.69,141.072,129.962,142.036,130.673,142L130.673,142z"/>
			</g>
		</g>
      <g>
			<g>
				<path fill="#46475C" d="M116.879,140.496c3.082,0.544,6.178,1.169,9.294,1.482c1.09,0.109,2.622-1.699,1.109-1.851      c-3.117-0.313-6.212-0.938-9.294-1.482C116.891,138.452,115.366,140.229,116.879,140.496L116.879,140.496z"/>
			</g>
		</g>
      <g>
			<g>
				<path fill="#46475C" d="M115.029,140.653c0.386,9.838,0.546,19.679,0.467,29.525c-0.033,4.069-0.065,8.138-0.042,12.207      c0.017,3.042-0.853,8.632,0.463,11.422c0.552,1.171,2.766,2.002,3.767,2.528c2.738,1.441,6.519,3.549,9.719,3.16      c4.355-0.528,9.083-1.035,13.194-2.615c1.911-0.735,1.38-4.323,1.424-5.876c0.15-5.242,0.063-10.494,0.002-15.737      c-0.121-10.327-0.506-20.656-0.533-30.985c-0.003-1.175-2.497-1.023-2.494,0.173c0.043,16.608,1.62,33.45,0.377,50.03      c-0.182,2.419-7.87,2.641-9.884,2.946c-3.757,0.57-6.763-0.901-10.128-2.462c-1.09-0.506-2.206-1.147-3.131-1.924      c-0.408-0.343-0.144-4.23-0.168-4.855c-0.606-15.891,0.085-31.807-0.538-47.709      C117.477,139.298,114.982,139.461,115.029,140.653L115.029,140.653z"/>
			</g>
		</g>
      <g>
			<g>
				<path fill="#46475C" d="M126.221,144.126c0.841,17.335,1.887,34.74,1.984,52.098c0.003,0.657,2.276-0.196,2.272-0.836      c-0.097-17.359-1.143-34.764-1.984-52.099C128.46,142.612,126.19,143.503,126.221,144.126L126.221,144.126z"/>
			</g>
		</g>
      <g>
			<g>
				<path fill="#46475C" d="M143.896,164.474c8.637-0.045,17.353-1.138,25.95-1.851c16.098-1.335,32.187-2.773,48.273-4.232      c26.714-2.423,53.496-4.594,80.142-7.695c0.81-0.094,1.627-0.175,2.429-0.325c1.583-0.297,0.911-2.707-0.665-2.411      c-7.539,1.414-15.457,1.674-23.079,2.418c-15.755,1.538-31.518,3.01-47.281,4.458c-27.635,2.54-55.321,5.505-83.036,7.036      c-0.91,0.05-1.821,0.097-2.732,0.102C142.284,161.983,142.284,164.483,143.896,164.474L143.896,164.474z"/>
			</g>
		</g>
      <g>
			<g>
				<path fill="#46475C" d="M301.422,133.783c-0.012,4.852-0.153,9.702-0.165,14.554c-0.004,1.612,2.496,1.612,2.5,0      c0.012-4.852,0.153-9.702,0.165-14.554C303.926,132.17,301.426,132.171,301.422,133.783L301.422,133.783z"/>
			</g>
		</g>
      <g>
			<g>
				<path fill="#46475C" d="M100.224,136.301c5.398,0.431,10.609,2.027,16.043,2.151c1.067,0.024-1.252-0.731-1.639-0.74      c-5.417-0.124-10.651-1.721-16.043-2.151C97.535,135.477,99.843,136.271,100.224,136.301L100.224,136.301z"/>
			</g>
		</g>
      <g>
			<g>
				<path fill="#46475C" d="M97.585,139.333c5.384,0.454,10.469,2.501,15.877,2.813c1.611,0.093,1.603-2.408,0-2.5      c-5.396-0.311-10.491-2.359-15.877-2.813C95.978,136.697,95.991,139.198,97.585,139.333L97.585,139.333z"/>
			</g>
		</g>
      <g>
			<g>
				<path fill="#46475C" d="M17.953,123.523c19.688,2.933,39.134,7.954,58.88,10.42c1.648,0.206,1.128-1.48-0.173-1.643      c-19.746-2.466-39.191-7.487-58.88-10.42C16.135,121.635,16.664,123.331,17.953,123.523L17.953,123.523z"/>
			</g>
		</g>
      <g>
			<g>
				<path fill="#46475C" d="M12.906,120.35c21.009,2.211,42.281,6.589,62.848,11.389c0.784,0.183,1.117-1.022,0.332-1.205      c-20.679-4.826-42.055-9.21-63.18-11.434C12.104,119.016,12.113,120.267,12.906,120.35L12.906,120.35z"/>
			</g>
		</g>
      <g>
			<g>
				<path fill="#46475C" d="M35.137,121.097c9.099,3.596,19.586,3.553,29.109,5.455c1.03,0.206-0.099-1.942-0.799-2.082      c-9.537-1.904-19.998-1.854-29.109-5.455C33.438,118.66,34.478,120.837,35.137,121.097L35.137,121.097z"/>
			</g>
		</g>
      <g>
			<g>
				<path fill="#46475C" d="M30.25,118.732c-5.805-0.242-11.578,0.259-17.381,0.294c-1.562,0.01-1.428,1.807,0.109,1.798      c5.577-0.034,11.135-0.551,16.713-0.319C31.054,120.562,31.899,118.801,30.25,118.732L30.25,118.732z"/>
			</g>
		</g>
      <g>
			<g>
				<path fill="#46475C" d="M8.638,121.669c-0.648,9.874,0.676,20.209,1.403,30.052c0.321,4.346-0.137,5.802,3.783,7.827      c1.646,0.85,4.835,3.337,6.725,3.247c3.481-0.165,7.122-0.274,10.512-1.142c0.492-0.126,0.706-0.403,0.68-0.907      c-0.591-11.253-0.875-22.649-2.28-33.836c-0.145-1.15-2.526-1.582-2.346-0.148c0.936,7.448,1.205,15.009,1.646,22.498      c0.192,3.264,0.375,6.528,0.551,9.794c0.097,1.784-0.162,0.874,0.281,0.761c-2.204,0.563-7.712,1.71-9.661,0.757      c-2.081-1.018-4.14-2.081-6.198-3.144c-1.71-0.883-0.86,0.122-1.041-1.799c-0.34-3.603-0.559-7.219-0.79-10.831      c-0.473-7.392-1.38-15.062-0.894-22.473C11.086,121.149,8.724,120.363,8.638,121.669L8.638,121.669z"/>
			</g>
		</g>
      <g>
			<g>
				<path fill="#46475C" d="M17.208,123.619c0.75,11.493,1.889,22.957,2.48,34.46c0.036,0.699,1.309,1.84,1.318,2.021      c-0.59-11.504-1.729-22.967-2.48-34.46C18.48,124.939,17.22,123.809,17.208,123.619L17.208,123.619z"/>
			</g>
		</g>
      <g>
			<g>
				<path fill="#46475C" d="M31.6,139.845c14.143,3.913,28.397,7.391,42.68,10.752c6.762,1.591,13.543,3.103,20.272,4.827      c6.715,1.721,13.85,2.585,20.407,4.767c0.343,0.113-0.324-1.977-1.005-2.203c-5.994-1.994-12.476-2.718-18.608-4.301      c-7.327-1.892-14.705-3.563-22.071-5.292c-14.284-3.353-28.537-6.84-42.68-10.752C30.212,137.537,30.916,139.655,31.6,139.845      L31.6,139.845z"/>
			</g>
		</g>
      <g>
			<g>
				<path fill="#46475C" d="M132.104,124.555c-0.705,3.529-0.133,7.321,2.013,10.263c0.879,1.206,2.096,0.489,1.194-0.747      c-1.71-2.346-2.018-5.27-1.459-8.063C134.024,125.148,132.343,123.364,132.104,124.555L132.104,124.555z"/>
			</g>
		</g>
      <g>
			<g>
				<path fill="#46475C" d="M113.82,120.494c-1.99,1.196-4.192,2.154-5.951,3.692c-1.727,1.51-2.024,3.861-2.055,6.021      c-0.007,0.468,2.485,0.388,2.493-0.188c0.031-2.191,0.346-4.246,1.98-5.825c1.567-1.513,3.865-2.392,5.713-3.502      C116.561,120.355,114.302,120.205,113.82,120.494L113.82,120.494z"/>
			</g>
		</g>
      <g>
			<g>
				<path fill="#46475C" d="M148.146,119.176c7.239-0.032,14.119-0.679,21.273-1.651c7.531-1.024,15.662-0.209,23.259-0.209      c1.51,0,1.531-1.386,0.016-1.386c-7.26,0-14.549-0.186-21.805,0.063c-3.054,0.105-6.101,0.805-9.117,1.248      c-4.451,0.654-9.121,0.53-13.61,0.549C146.653,117.797,146.63,119.182,148.146,119.176L148.146,119.176z"/>
			</g>
		</g>
      <g>
			<g>
				<path fill="#46475C" d="M223.512,115.598c10.729-0.03,21.424-0.234,32.152,0.048c8.821,0.232,18.318-1.792,26.93,0.82      c1.121,0.34,0.137-1.914-0.696-2.166c-9.136-2.772-19.424-0.623-28.778-0.869c-10.251-0.27-20.475-0.03-30.727-0.001      C221.422,113.433,222.575,115.601,223.512,115.598L223.512,115.598z"/>
			</g>
		</g>
      <g>
			<g>
				<path fill="#46475C" d="M286.645,117.031c2.503-0.054,5.447-0.834,7.801,0.295c1.714,0.822,1.553,5.588,1.561,7.151      c0.003,0.619,1.752,1.62,1.753,1.658c-0.016-3.166-0.359-6.454-2.673-8.827c-0.918-0.942-1.847-1.728-3.125-2.116      c-2.126-0.646-4.749-0.011-6.919,0.036C285.044,115.228,286.048,117.043,286.645,117.031L286.645,117.031z"/>
			</g>
		</g>
      <g>
			<g>
				<path fill="#46475C" d="M286.963,115.417c-5.542,0.018-11.081,0.23-16.622,0.248c-0.75,0.002-2.512,1.674-1.497,1.671      c5.542-0.019,11.081-0.23,16.622-0.248C286.216,117.085,287.979,115.414,286.963,115.417L286.963,115.417z"/>
			</g>
		</g>
      <g>
			<g>
				<path fill="#46475C" d="M40.563,113.498c3.33-0.198,7.087,0.809,10.417,1.202c4.572,0.54,9.495,0.675,13.998,1.575      c0.486,0.097,2.867-0.473,1.703-0.705c-4.185-0.836-8.584-0.939-12.827-1.438c-4.136-0.486-8.541-1.658-12.706-1.411      C40.2,112.777,38.838,113.6,40.563,113.498L40.563,113.498z"/>
			</g>
		</g>
	</g>
</g>
</svg>